<svg xmlns="http://www.w3.org/2000/svg" viewBox="0 0 512 512">
  <defs>
    <linearGradient id="chrome" x1="58" y1="58" x2="454" y2="454" gradientUnits="userSpaceOnUse">
      <stop stop-color="#f8faf7"/>
      <stop offset=".42" stop-color="#9da7a4"/>
      <stop offset=".68" stop-color="#e7ebe8"/>
      <stop offset="1" stop-color="#3f494b"/>
    </linearGradient>
  </defs>
  <rect width="512" height="512" fill="url(#chrome)"/>
  <rect x="84" y="92" width="344" height="328" rx="72" fill="#12363d"/>
  <rect x="120" y="128" width="128" height="128" rx="28" fill="#79d4af"/>
  <rect x="270" y="128" width="122" height="82" rx="22" fill="#ffbe35"/>
  <rect x="270" y="236" width="122" height="148" rx="28" fill="#2ec4d6"/>
  <rect x="120" y="284" width="128" height="100" rx="28" fill="#f35f47"/>
  <path d="M177 205h64l70-55c9-7 21 3 15 13l-23 42h36c8 0 15 7 15 15s-7 15-15 15h-54l-43 70c-7 11-24 4-21-9l10-61h-54c-8 0-15-7-15-15s7-15 15-15Z" fill="#fff"/>
</svg>
