<svg xmlns="http://www.w3.org/2000/svg" viewBox="0 0 512 512">
  <defs>
    <linearGradient id="chrome" x1="76" y1="62" x2="436" y2="450" gradientUnits="userSpaceOnUse">
      <stop stop-color="#f8faf7"/>
      <stop offset=".42" stop-color="#9da7a4"/>
      <stop offset=".68" stop-color="#e7ebe8"/>
      <stop offset="1" stop-color="#3f494b"/>
    </linearGradient>
    <linearGradient id="tile" x1="112" y1="132" x2="400" y2="392" gradientUnits="userSpaceOnUse">
      <stop stop-color="#79d4af"/>
      <stop offset=".48" stop-color="#ffbe35"/>
      <stop offset="1" stop-color="#2ec4d6"/>
    </linearGradient>
  </defs>
  <rect width="512" height="512" rx="112" fill="#fff"/>
  <rect x="64" y="64" width="384" height="384" rx="92" fill="url(#chrome)"/>
  <rect x="104" y="116" width="304" height="280" rx="46" fill="#12363d" opacity=".92"/>
  <rect x="132" y="144" width="112" height="112" rx="22" fill="url(#tile)"/>
  <rect x="268" y="144" width="112" height="74" rx="18" fill="#ffbe35"/>
  <rect x="268" y="238" width="112" height="158" rx="22" fill="#2ec4d6"/>
  <rect x="132" y="280" width="112" height="116" rx="22" fill="#f35f47"/>
  <path d="M183 209h66l66-52c8-6 19 2 15 12l-24 40h34c8 0 14 6 14 14s-6 14-14 14h-52l-42 68c-6 10-21 4-19-8l10-60h-54c-8 0-14-6-14-14s6-14 14-14Z" fill="#fff"/>
</svg>
