<?xml version="1.0" encoding="UTF-8"?>
<!DOCTYPE svg PUBLIC "-//W3C//DTD SVG 1.1//EN" "http://www.w3.org/Graphics/SVG/1.1/DTD/svg11.dtd">
<!-- Creator: Corel DESIGNER -->
<svg xmlns="http://www.w3.org/2000/svg" xml:space="preserve" width="210mm" height="297mm" version="1.1" style="shape-rendering:geometricPrecision; text-rendering:geometricPrecision; image-rendering:optimizeQuality; fill-rule:evenodd; clip-rule:evenodd"
viewBox="0 0 21000 29700"
 xmlns:xlink="http://www.w3.org/1999/xlink"
 xmlns:xodm="http://www.corel.com/coreldraw/odm/2003"
 role="img"
 aria-labelledby="title desc">
 <defs>
  <style type="text/css">
   <![CDATA[
    .str0 {stroke:#043F53;stroke-width:899.58;stroke-linecap:round;stroke-linejoin:round;stroke-miterlimit:22.9256}
    .fil0 {fill:none}
    .fil3 {fill:#043F53;fill-rule:nonzero}
    .fil2 {fill:#2FCCFC;fill-rule:nonzero}
    .fil1 {fill:#8CFF21;fill-rule:nonzero}
    .fil4 {fill:#F87117;fill-rule:nonzero}
    .fil5 {fill:#FED109;fill-rule:nonzero}
   ]]>
  </style>
 </defs>
 <g id="Слой_x0020_1">
  <metadata id="CorelCorpID_0Corel-Layer"/>
  <g id="_1497601220736">
   <path class="fil0 str0" d="M3581.13 14734.01l264.59 0 1243.55 16.52c0,0 0,858.65 0,1227.01l-0.01 4709.59 0.01 1200.79c0,48.01 -908.12,42.72 -1243.54,42.74l-264.6 0.02c-686.66,-0.02 -1243.53,-556.89 -1243.53,-1243.56l-0.01 -4709.57c0.01,-686.68 556.88,-1243.54 1243.55,-1243.54z"/>
   <path class="fil0 str0" d="M17248.94 14668.85l264.59 0c686.67,0 1243.54,556.86 1243.54,1243.53l0 4709.59c0,686.66 -556.87,1243.53 -1243.54,1243.53l-264.59 0.02 -1243.51 1.29c-14.28,0 -0.03,-907.11 -0.03,-1244.85l0 -4709.57 18.87 -1217.82c0,0 933.31,-25.72 1224.67,-25.72z"/>
   <path class="fil0 str0" d="M7602.81 8261.87l0 -1031.87c0,-767.29 608.54,-1217.08 1375.84,-1217.08l3042.7 0c767.3,0 1375.84,608.54 1375.84,1375.83l0 873.12"/>
   <path class="fil0 str0" d="M5089.27 21887.92l0 -9710.21c0,-2328.34 1852.08,-3915.84 4180.42,-3915.84l2460.62 0c2328.34,0 4180.42,1587.5 4180.42,3915.84l0 9710.21c0,1058.33 -846.67,1905 -1905,1905l-7011.46 0c-1058.33,0 -1905,-846.67 -1905,-1905z"/>
  </g>
  <path class="fil1" d="M6900.03 16526.67l1590.77 0c242.98,-0.01 440.02,211.1 440.02,471.41l-0.01 1486.8c0.01,260.3 -197.03,471.41 -439.99,471.41l-1590.79 0.01c-242.95,-0.01 -439.99,-211.12 -439.99,-471.43l-0.01 -1486.77c0.01,-260.33 197.05,-471.44 440.01,-471.44z"/>
  <path class="fil2" d="M6834.34 19301.16l1590.77 0c242.98,-0.01 440.02,211.1 440.02,471.41l-0.01 1486.8c0.01,260.3 -197.03,471.41 -439.99,471.41l-1590.79 0.01c-242.95,-0.01 -439.99,-211.12 -439.99,-471.44l-0.01 -1486.77c0.01,-260.32 197.05,-471.43 440.01,-471.43z"/>
  <path class="fil3" d="M9838.54 17450.14l3889.38 0c197.24,-0.01 357.19,159.94 357.19,357.18l-0.01 0.01c0.01,197.23 -159.94,357.18 -357.18,357.18l-3889.38 0.01c-197.23,-0.01 -357.18,-159.96 -357.18,-357.2l-0.01 0.01c0.01,-197.25 159.96,-357.2 357.2,-357.2z"/>
  <path class="fil3" d="M9838.54 20043.06l3889.38 0c197.24,-0.01 357.19,159.94 357.19,357.18l-0.01 0.01c0.01,197.23 -159.94,357.18 -357.18,357.18l-3889.38 0.01c-197.23,-0.01 -357.18,-159.96 -357.18,-357.2l-0.01 0.01c0.01,-197.25 159.96,-357.2 357.2,-357.2z"/>
  <path class="fil4" d="M6900.03 11000.85l1590.77 0c242.98,-0.01 440.02,211.1 440.02,471.41l-0.01 1486.8c0.01,260.3 -197.03,471.41 -439.99,471.41l-1590.79 0.01c-242.95,-0.01 -439.99,-211.12 -439.99,-471.43l-0.01 -1486.77c0.01,-260.33 197.05,-471.44 440.01,-471.44z"/>
  <path class="fil5" d="M6834.34 13735.34l1590.77 0c242.98,-0.01 440.02,211.1 440.02,471.41l-0.01 1486.8c0.01,260.3 -197.03,471.41 -439.99,471.41l-1590.79 0.01c-242.95,-0.01 -439.99,-211.12 -439.99,-471.44l-0.01 -1486.77c0.01,-260.32 197.05,-471.43 440.01,-471.43z"/>
  <path class="fil3" d="M9838.54 11924.32l3889.38 0c197.24,-0.01 357.19,159.94 357.19,357.18l-0.01 0.01c0.01,197.23 -159.94,357.18 -357.18,357.18l-3889.38 0.01c-197.23,-0.01 -357.18,-159.96 -357.18,-357.2l-0.01 0.01c0.01,-197.25 159.96,-357.2 357.2,-357.2z"/>
  <path class="fil3" d="M9838.54 14517.24l3889.38 0c197.24,-0.01 357.19,159.94 357.19,357.18l-0.01 0.01c0.01,197.23 -159.94,357.18 -357.18,357.18l-3889.38 0.01c-197.23,-0.01 -357.18,-159.96 -357.18,-357.2l-0.01 0.01c0.01,-197.25 159.96,-357.2 357.2,-357.2z"/>
 </g>
</svg>
